<svg width="1em" height="1em" viewBox="0 0 32 32" fill="none" xmlns="http://www.w3.org/2000/svg">
 <g id="组_17268" data-name="组 17268" transform="translate(21138 14580)">
    <rect id="矩形_5715" data-name="矩形 5715" width="32" height="32" transform="translate(-21138 -14580)" fill="#fff" opacity="0"/>
    <g id="组_17267" data-name="组 17267" transform="translate(-21135 -14580)">
      <rect id="矩形_5443" data-name="矩形 5443" width="26.667" height="31.974" transform="translate(0 0.003)" fill="#dc2017"/>
      <path id="路径_8839" data-name="路径 8839" d="M951.721,557.73s-2.806-3.7-3.764-5.428a40.615,40.615,0,0,1-2.514-5.564,32.675,32.675,0,0,0,.483,4.231,5.443,5.443,0,0,0,.224.831,19.094,19.094,0,0,0,2.2,4.1,20.559,20.559,0,0,1,1.166,1.836Z" transform="translate(-944.914 -525.753)" fill="#fff" fill-rule="evenodd"/>
      <path id="路径_8840" data-name="路径 8840" d="M956.772,553.753c-5.647-4.815-9.6-10.892-10.864-17.755-1.128-6.127.169-9.767,1.71-11.481a8.1,8.1,0,0,1,4.324-2.372,9.962,9.962,0,0,1,5.263.4,23.853,23.853,0,0,1,7.143,3.887c1.165,1.021,3.609,3.1,3.609,3.1s.451.2.094.453.629.552.629.552a.617.617,0,0,1-.128.364c-.059.06.379.345.256.321-.385-.074-3.784-2.958-6.34-4.062s-4.812-2.339-7.444-2.092a6.129,6.129,0,0,0-4.6,2.3c-4.606,6.163,2.288,19.08,7.444,24.276,1.5,1.515,2.185,2.1,2.185,2.1Z" transform="translate(-944.914 -521.753)" fill="#fff" fill-rule="evenodd"/>
      <path id="路径_8841" data-name="路径 8841" d="M953.8,532.669s.07.246.194.663c.1.35.245.821.415,1.37.548,1.77,1.39,4.353,2.211,6.312,1.486,3.548,4.866,12.416,9.643,12.246,3.5-.124.686-6.328.018-7.759-.371-.8-.766-1.573,0-.426.339.507,1.2,2.741,1.26,2.5a14.941,14.941,0,0,0-.658-1.836l-.432-1.048c-1.02-1.867.178-.13.216-.278.056-.222-.019-.333.113-.278.879.372,2.476,3.119,2.735,3.885a15.114,15.114,0,0,1,1.09,4.84c.142,2.753-1.791,4.829-5.084,3.614-2.185-.807-5.165-4.571-6.366-6.51a46.739,46.739,0,0,1-3.684-7.735c-.708-1.829-1.26-3.683-1.821-5.428a.3.3,0,0,1,.113-.13c.066-.027.016.056-.028-.157s-.08-1.054.244-1.28c.078-.054.113.1.085-.083a15.794,15.794,0,0,0-.264-2.485" transform="translate(-948.247 -525.753)" fill="#fff" fill-rule="evenodd"/>
      <path id="路径_8842" data-name="路径 8842" d="M958.755,536.511a5.919,5.919,0,0,0,.486,2.593,11.954,11.954,0,0,0,2.36,3.743c.034.03.088.113.123.139s.072-.081.147-.092c.1-.016.044.1.147.178a4.892,4.892,0,0,1,.622.454.792.792,0,0,0,.113.08c.082.065.038-.009-.1-.268a19.275,19.275,0,0,1-.966-2.228,17.926,17.926,0,0,1,1.216,2.082c.009.017-3.441-6.413-.523-7.325a4.863,4.863,0,0,1,3.2.517c2.062.97,4.723,5.079,5.568,7.059.15.352,1.09,2.318,1.372,3.263.124.418.341,1.076.534,1.731a6.323,6.323,0,0,1,.387,1.978c-.119.611.335-.506.216-1.363-.7-5.022-5.574-15.753-11.043-16.114a3.96,3.96,0,0,0-2.391.535,3.269,3.269,0,0,0-1.469,3.038" transform="translate(-948.247 -524.19)" fill="#fff" fill-rule="evenodd"/>
      <path id="路径_8843" data-name="路径 8843" d="M968.194,524.5s-.886-.492-.679-.316a8.532,8.532,0,0,0,1.026.854,2.309,2.309,0,0,1,.495.58c.433.577.127.437-.1.2a7.721,7.721,0,0,0-1.48-1.2c-.38-.239-.844-.378-1.248-.657,0,0,.535.464.883.756.479.4.275.581.785.853a9.646,9.646,0,0,1,.771.69.4.4,0,0,1,.2.432c-.056.6.99,1.025,1.071,1.1.062.057-.043.187-.282.13-.3-.072-.906-.664-.908-.472a.78.78,0,0,0,.25.361c.155.118.483.543.677.426.055-.033.265.07.491.239a2.153,2.153,0,0,1,.5.659c.068.126.184.109.123.142-.09.05-.217-.1-.413-.237-.363-.251-.678-.852-.673-.509,0,.083-.022.165-.009.179.359.409.685.517,1.08,1.011l.875,1.279a7.922,7.922,0,0,0,.789,1.159c.036,0-.53-1.145-.807-1.829-.1-.251-.244-.432-.222-.48.01-.021.037.036.084.12a16.633,16.633,0,0,0,1.005,1.89.684.684,0,0,1,.069.349c.017.193.322.547.438.746.555.951,1.584,2.948,1.929,3.62v-5.286a28.462,28.462,0,0,0-4.714-5.648,18.42,18.42,0,0,0-6.729-3.885c.335.167,1.133.554,1.417.7C968.086,524.1,968.194,524.5,968.194,524.5Z" transform="translate(-948.247 -521.753)" fill="#fff" fill-rule="evenodd"/>
    </g>
  </g>
<defs>
<linearGradient id="paint0_linear_2557_23660" x1="2.71742" y1="5.12812" x2="10.0624" y2="4.98122" gradientUnits="userSpaceOnUse">
<stop stop-color="#0062FF"/>
<stop offset="0.26" stop-color="#006AFF"/>
<stop offset="0.68" stop-color="#0081FF"/>
<stop offset="1" stop-color="#0097FF"/>
</linearGradient>
<linearGradient id="paint1_linear_2557_23660" x1="12.383" y1="7.62346" x2="9.12269" y2="22.0419" gradientUnits="userSpaceOnUse">
<stop stop-color="#0097FF"/>
<stop offset="0.32" stop-color="#0081FF"/>
<stop offset="0.74" stop-color="#006AFF"/>
<stop offset="1" stop-color="#0062FF"/>
</linearGradient>
<linearGradient id="paint2_linear_2557_23660" x1="5.63057" y1="27.3635" x2="12.8582" y2="21.4727" gradientUnits="userSpaceOnUse">
<stop stop-color="#009EFF"/>
<stop offset="0.31" stop-color="#00A3FF"/>
<stop offset="0.71" stop-color="#00B3FF"/>
<stop offset="1" stop-color="#00C3FF"/>
</linearGradient>
<linearGradient id="paint3_linear_2557_23660" x1="8.84911" y1="5.12811" x2="27.9399" y2="4.74629" gradientUnits="userSpaceOnUse">
<stop offset="0.03" stop-color="#ECFFFE"/>
<stop offset="0.19" stop-color="#AFF1D9"/>
<stop offset="0.34" stop-color="#79E5B9"/>
<stop offset="0.49" stop-color="#4EDB9F"/>
<stop offset="0.63" stop-color="#2CD48A"/>
<stop offset="0.77" stop-color="#14CE7C"/>
<stop offset="0.89" stop-color="#05CB73"/>
<stop offset="1" stop-color="#00CA70"/>
</linearGradient>
<clipPath id="clip0_2557_23660">
<rect width="25.1407" height="25.72" fill="white" transform="translate(2.97754 2)"/>
</clipPath>
</defs>
</svg>
