<svg width="1em" height="32px" viewBox="0 0 192 32" fill="none" xmlns="http://www.w3.org/2000/svg">
  <g id="组_17271" data-name="组 17271" transform="translate(20483 14919)">
    <g id="组_17270" data-name="组 17270">
      <rect id="矩形_5715" data-name="矩形 5715" width="32" height="32" transform="translate(-20483 -14919)" fill="#fff" opacity="0"/>
      <path id="矩形_5715_-_轮廓" data-name="矩形 5715 - 轮廓" d="M1,1V31H31V1H1M0,0H32V32H0Z" transform="translate(-20483 -14919)" fill="none"/>
      <rect id="矩形_5443" data-name="矩形 5443" width="26.667" height="31.974" transform="translate(-20480 -14918.997)" fill="#dc2017"/>
      <path id="路径_8839" data-name="路径 8839" d="M951.721,557.73s-2.806-3.7-3.764-5.428a40.615,40.615,0,0,1-2.514-5.564,32.675,32.675,0,0,0,.483,4.231,5.443,5.443,0,0,0,.224.831,19.094,19.094,0,0,0,2.2,4.1,20.559,20.559,0,0,1,1.166,1.836Z" transform="translate(-21424.914 -15444.753)" fill="#fff" fill-rule="evenodd"/>
      <path id="路径_8840" data-name="路径 8840" d="M956.772,553.753c-5.647-4.815-9.6-10.892-10.864-17.755-1.128-6.127.169-9.767,1.71-11.481a8.1,8.1,0,0,1,4.324-2.372,9.962,9.962,0,0,1,5.263.4,23.853,23.853,0,0,1,7.143,3.887c1.165,1.021,3.609,3.1,3.609,3.1s.451.2.094.453.629.552.629.552a.617.617,0,0,1-.128.364c-.059.06.379.345.256.321-.385-.074-3.784-2.958-6.34-4.062s-4.812-2.339-7.444-2.092a6.129,6.129,0,0,0-4.6,2.3c-4.606,6.163,2.288,19.08,7.444,24.276,1.5,1.515,2.185,2.1,2.185,2.1Z" transform="translate(-21424.914 -15440.753)" fill="#fff" fill-rule="evenodd"/>
      <path id="路径_8841" data-name="路径 8841" d="M953.8,532.669s.07.246.194.663c.1.35.245.821.415,1.37.548,1.77,1.39,4.353,2.211,6.312,1.486,3.548,4.866,12.416,9.643,12.246,3.5-.124.686-6.328.018-7.759-.371-.8-.766-1.573,0-.426.339.507,1.2,2.741,1.26,2.5a14.941,14.941,0,0,0-.658-1.836l-.432-1.048c-1.02-1.867.178-.13.216-.278.056-.222-.019-.333.113-.278.879.372,2.476,3.119,2.735,3.885a15.114,15.114,0,0,1,1.09,4.84c.142,2.753-1.791,4.829-5.084,3.614-2.185-.807-5.165-4.571-6.366-6.51a46.739,46.739,0,0,1-3.684-7.735c-.708-1.829-1.26-3.683-1.821-5.428a.3.3,0,0,1,.113-.13c.066-.027.016.056-.028-.157s-.08-1.054.244-1.28c.078-.054.113.1.085-.083a15.794,15.794,0,0,0-.264-2.485" transform="translate(-21428.246 -15444.753)" fill="#fff" fill-rule="evenodd"/>
      <path id="路径_8842" data-name="路径 8842" d="M958.755,536.511a5.919,5.919,0,0,0,.486,2.593,11.954,11.954,0,0,0,2.36,3.743c.034.03.088.113.123.139s.072-.081.147-.092c.1-.016.044.1.147.178a4.892,4.892,0,0,1,.622.454.792.792,0,0,0,.113.08c.082.065.038-.009-.1-.268a19.275,19.275,0,0,1-.966-2.228,17.926,17.926,0,0,1,1.216,2.082c.009.017-3.441-6.413-.523-7.325a4.863,4.863,0,0,1,3.2.517c2.062.97,4.723,5.079,5.568,7.059.15.352,1.09,2.318,1.372,3.263.124.418.341,1.076.534,1.731a6.323,6.323,0,0,1,.387,1.978c-.119.611.335-.506.216-1.363-.7-5.022-5.574-15.753-11.043-16.114a3.96,3.96,0,0,0-2.391.535,3.269,3.269,0,0,0-1.469,3.038" transform="translate(-21428.246 -15443.19)" fill="#fff" fill-rule="evenodd"/>
      <path id="路径_8843" data-name="路径 8843" d="M968.194,524.5s-.886-.492-.679-.316a8.532,8.532,0,0,0,1.026.854,2.309,2.309,0,0,1,.495.58c.433.577.127.437-.1.2a7.721,7.721,0,0,0-1.48-1.2c-.38-.239-.844-.378-1.248-.657,0,0,.535.464.883.756.479.4.275.581.785.853a9.646,9.646,0,0,1,.771.69.4.4,0,0,1,.2.432c-.056.6.99,1.025,1.071,1.1.062.057-.043.187-.282.13-.3-.072-.906-.664-.908-.472a.78.78,0,0,0,.25.361c.155.118.483.543.677.426.055-.033.265.07.491.239a2.153,2.153,0,0,1,.5.659c.068.126.184.109.123.142-.09.05-.217-.1-.413-.237-.363-.251-.678-.852-.673-.509,0,.083-.022.165-.009.179.359.409.685.517,1.08,1.011l.875,1.279a7.922,7.922,0,0,0,.789,1.159c.036,0-.53-1.145-.807-1.829-.1-.251-.244-.432-.222-.48.01-.021.037.036.084.12a16.633,16.633,0,0,0,1.005,1.89.684.684,0,0,1,.069.349c.017.193.322.547.438.746.555.951,1.584,2.948,1.929,3.62v-5.286a28.462,28.462,0,0,0-4.714-5.648,18.42,18.42,0,0,0-6.729-3.885c.335.167,1.133.554,1.417.7C968.086,524.1,968.194,524.5,968.194,524.5Z" transform="translate(-21428.246 -15440.753)" fill="#fff" fill-rule="evenodd"/>
    </g>
    <path id="路径_9063" data-name="路径 9063" d="M19.185-17.9H14.728c1.511-.68,1.612-3.778-3.7-4.231l-.2.151a9.061,9.061,0,0,1,2.115,3.828,2.193,2.193,0,0,0,.478.252H6.795L3.118-19.16v7.731c0,4.306-.176,9.091-2.468,12.793l.227.2c5.087-3.425,5.414-8.814,5.414-13.02v-5.717H23.34c.353,0,.63-.126.705-.4-1.158-1.083-3.123-2.72-3.123-2.72Zm13.524,4.835A15.767,15.767,0,0,0,37.72-17.8h7.706a34.123,34.123,0,0,1-1.108,3.626l.227.151A22.511,22.511,0,0,0,48.5-17.2a1.507,1.507,0,0,0,.982-.3l-2.644-2.544L45.3-18.505H38.2a18.559,18.559,0,0,0,1.41-2.594c.63-.025.806-.151.881-.453l-4.13-.5a19.881,19.881,0,0,1-3.878,8.789Zm-5.54-7.882a6.8,6.8,0,0,1,1.864,3.626c2.468,1.813,4.835-3.022-1.662-3.778Zm5.49,19.719V-6.77H42.782v5.54ZM42.53-7.5H32.86l-2.065-.831a1.49,1.49,0,0,0,.806-1.36c.05-1.561-.73-2.241-.756-3.148a4.114,4.114,0,0,1,.579-1.662c.378-.705,2.493-3.828,3.45-5.263l-.353-.2c-4.659,5.112-4.659,5.112-5.339,5.792a.932.932,0,0,1-.907.353H26.992v.5a2.959,2.959,0,0,1,1.209.353c.6.3.705,1.687.428,3.778.151.68.579,1.083,1.083,1.083h.126v9.57h.428c1.158,0,2.392-.63,2.392-.907V-.5H42.782V1.188h.5A4.254,4.254,0,0,0,45.7.408v-6.7a1.957,1.957,0,0,0,1.007-.529L43.865-8.961Zm-3.954-9.721c-.151,3.677-.705,6.4-6.6,8.663l.2.428c6.724-1.511,8.336-3.727,8.94-6.548a9.646,9.646,0,0,0,6.371,7,2.5,2.5,0,0,1,2.241-2.594l.025-.277c-5.137-1.007-7.631-2.921-8.462-5.188l.076-.529a.838.838,0,0,0,.856-.68Zm24.957-4.936A6.241,6.241,0,0,1,65.3-18.883c2.544,1.763,4.911-3.1-1.561-3.425Zm-11.03.529a9.167,9.167,0,0,1,1.889,3.878c2.468,1.914,4.986-2.871-1.687-4.029Zm-1.536,5.767a8.35,8.35,0,0,1,1.889,3.626c2.418,1.763,4.684-2.871-1.662-3.778Zm6.674-2.418C53.989-7.55,53.989-7.55,53.536-6.593c-.227.529-.327.554-.68.554H51.773v.478a2.427,2.427,0,0,1,1.284.4c.554.4.68,2.821.2,5.414.176.957.73,1.31,1.31,1.31a1.993,1.993,0,0,0,2.015-2.09c.05-2.267-.932-3.224-.957-4.558a13.171,13.171,0,0,1,.252-2.443c.252-1.435,1.486-7.429,2.216-10.678ZM56.809,1.465A19.6,19.6,0,0,0,65.12-1.154c.781.176,1.259.05,1.461-.227l-3.5-2.191a16.3,16.3,0,0,1-6.4,4.76ZM67.084-2.766A12.787,12.787,0,0,1,71.567.861c2.267,2.216,7.53-2.77-4.332-3.929Zm1.31-12.617H60.486a3.8,3.8,0,0,0,.353-2.317H71.315c-.05.453-.076.982-.1,1.435-.73-.529-1.335-.957-1.335-.957Zm1.259,3.8v2.72H67.336v-2.72ZM67.336-5.007V-8.13h2.317v3.123ZM62.123-8.13h2.468v3.123H62.123Zm2.468-3.45v2.72H62.123v-2.72Zm7.933-8.285L71.063-18.4H60.713a9.129,9.129,0,0,0-.378-1.41l-.353-.025a3.791,3.791,0,0,1-1.763,3.047c-1.435,1.864.806,3.022,1.99,1.763l.1.378h4.281v2.367H62.4l-2.972-1.158v10.5h.478c1.385,0,2.216-.478,2.216-.68v-.655h7.53V-3.4h.478a3.4,3.4,0,0,0,2.342-.63v-7.354a1.43,1.43,0,0,0,.982-.478L70.887-13.8l-1.335,1.511H67.336v-2.367H72c.378,0,.63-.126.705-.4q-.378-.34-.831-.68c.73-.428,1.637-1.033,2.216-1.435.5-.025.73-.05.907-.277Zm24.227,1.284c.378,0,.655-.126.73-.4-1.184-1.033-3.148-2.468-3.148-2.468L92.6-19.311H79.3l.2.73ZM81.162-10.472A24.732,24.732,0,0,1,76.226-1.28l.227.252a21.162,21.162,0,0,0,7.454-7.4c.63.076.856-.126.982-.378Zm10.955.68a20.81,20.81,0,0,1,4.735,7.857c3.224,2.342,5.44-4.558-4.483-8.034Zm2.8-3.626H76.4l.227.73H86.753v10.35c0,.327-.151.478-.579.478-.63,0-3.727-.176-3.727-.176v.327A4.031,4.031,0,0,1,85.015-.675a3.417,3.417,0,0,1,.68,2.216c3.576-.277,4.1-1.712,4.1-3.778V-12.688h9.393c.378,0,.655-.126.73-.4C98.715-14.123,96.7-15.66,96.7-15.66Zm12.264,6.925a23.706,23.706,0,0,1-5.54,7l.2.277a22.262,22.262,0,0,0,7.782-5.037c.6.1.806-.025.982-.277Zm9.57-5.54a16.924,16.924,0,0,1,2.695,2.418c-5.037.227-9.771.4-12.894.478a70.65,70.65,0,0,0,13.775-5.616,1.07,1.07,0,0,0,1.184-.2l-3.072-2.392a22.293,22.293,0,0,1-3.224,2.493c-3.173.1-6.2.151-8.21.151a36.322,36.322,0,0,0,7.1-2.644c.554.126.907-.025,1.033-.277l-1.763-.982c3.047-.227,5.893-.529,8.159-.831.831.353,1.435.327,1.738.076l-2.871-2.9a115.4,115.4,0,0,1-18.082,3.677l.05.4c2.644,0,5.515-.1,8.285-.252a17.094,17.094,0,0,1-5.339,3.249,4.179,4.179,0,0,1-.881.176l1.461,3.173a1.2,1.2,0,0,0,.5-.453c2.77-.529,5.263-1.083,7.228-1.561a39.264,39.264,0,0,1-9.066,4.306,6.848,6.848,0,0,1-1.234.227l1.486,3.173a1.319,1.319,0,0,0,.6-.579c2.292-.3,4.382-.63,6.321-.932v5.994c0,.277-.1.428-.478.428-.5,0-2.669-.151-2.669-.151v.327a2.91,2.91,0,0,1,1.99.881,3.477,3.477,0,0,1,.453,1.864c3.3-.227,3.778-1.385,3.778-3.274V-8.13c1.99-.327,3.677-.655,5.112-.932a10.372,10.372,0,0,1,1.738,2.745c3.047,1.612,4.458-4.609-4.684-5.893Zm-.579,5.994A17.005,17.005,0,0,1,121.2.181c3.173,1.838,4.835-4.684-4.835-6.422Zm23.446-15.916a9.74,9.74,0,0,1,1.964,3.626c2.644,1.763,4.986-3.224-1.738-3.778ZM128.255-5.183a1.312,1.312,0,0,0,.5-.428c3.148-1.158,5.792-2.342,7.2-3.022l-.025-.327c-2.518.277-5.087.5-6.875.655a35.34,35.34,0,0,0,6.674-6.825c.5.076.831-.1.932-.327l-3.249-1.914a21.108,21.108,0,0,1-1.435,3.047c-1.36.025-2.644.025-3.6.025a31.038,31.038,0,0,0,5.062-5.767.819.819,0,0,0,.856-.4l-3.551-1.435c-.5,2.04-2.141,5.843-3.4,7.127a2.742,2.742,0,0,1-.806.3l1.31,3.173a1.725,1.725,0,0,0,.63-.529c.932-.353,1.838-.73,2.669-1.083A20.163,20.163,0,0,1,127.8-8.658a2.833,2.833,0,0,1-.907.327Zm7.908.1c-3.626.932-7.53,1.712-9.268,1.939l1.36,3.5a1.062,1.062,0,0,0,.63-.68,64.784,64.784,0,0,0,7.328-4.508Zm13.524-.277h-.277A23.516,23.516,0,0,1,148.4-2.211c-.151.227-.252.277-.453.277-.176,0-.453.025-.781.025h-.881c-.428,0-.478-.126-.478-.478v-9.167l.781-.2a8.744,8.744,0,0,1,.756,2.141c2.695,1.99,4.911-3.5-2.669-5.692l-.252.176a15.776,15.776,0,0,1,1.838,2.695c-3.274.1-6.346.176-8.487.2a25.886,25.886,0,0,0,5.339-3.375.861.861,0,0,0,.932-.4l-2.821-1.108h8.739c.378,0,.63-.126.705-.4-1.007-.957-2.72-2.317-2.72-2.317l-1.486,1.99H135.055l.176.73h5.188a14.266,14.266,0,0,1-4.256,4.583,6.062,6.062,0,0,1-.856.2l1.36,3.274a1.564,1.564,0,0,0,.655-.579l.957-.2v.982A10.74,10.74,0,0,1,132.26,1.314l.151.252c7.958-2.292,8.89-6.925,8.915-10.451v-1.587c.579-.126,1.083-.252,1.612-.378v9.217c0,1.813.327,2.392,2.418,2.392h1.486c2.846,0,3.752-.554,3.752-1.637a1.2,1.2,0,0,0-.806-1.209Z" transform="translate(-20441.65 -14892.692)" fill="rgba(0,0,0,0.8)"/>
  </g>
<defs>
<linearGradient id="paint0_linear_18110_34031" x1="7.81543" y1="4.88815" x2="7.92589" y2="15.4398" gradientUnits="userSpaceOnUse">
<stop stop-color="#009BFF"/>
<stop offset="0.35" stop-color="#0081FE"/>
<stop offset="0.75" stop-color="#006AFD"/>
<stop offset="1" stop-color="#0062FD"/>
</linearGradient>
<linearGradient id="paint1_linear_18110_34031" x1="5.68577" y1="2.65136" x2="20.3785" y2="5.41299" gradientUnits="userSpaceOnUse">
<stop offset="0.03" stop-color="#E9FFFF"/>
<stop offset="0.17" stop-color="#C4FAC9"/>
<stop offset="0.33" stop-color="#A0F694"/>
<stop offset="0.48" stop-color="#82F269"/>
<stop offset="0.63" stop-color="#6AEF47"/>
<stop offset="0.76" stop-color="#5AED2F"/>
<stop offset="0.89" stop-color="#4FEB20"/>
<stop offset="1" stop-color="#4CEB1B"/>
</linearGradient>
</defs>
</svg>
